<?xml version="1.0" standalone="no"?>
<!DOCTYPE svg PUBLIC "-//W3C//DTD SVG 20010904//EN"
 "http://www.w3.org/TR/2001/REC-SVG-20010904/DTD/svg10.dtd">
<svg version="1.0" xmlns="http://www.w3.org/2000/svg"
 width="982.000000pt" height="982.000000pt" viewBox="0 0 982.000000 982.000000"
 preserveAspectRatio="xMidYMid meet">
<metadata>
Created by potrace 1.11, written by Peter Selinger 2001-2013
</metadata>
<g transform="translate(0.000000,982.000000) scale(0.100000,-0.100000)"
fill="#000000" stroke="none">
<path d="M6740 9270 c-64 -10 -150 -26 -160 -30 -3 -1 -8 -2 -12 -1 -4 0 -20
-4 -35 -10 -15 -6 -35 -12 -43 -14 -39 -8 -183 -59 -259 -92 -125 -53 -360
-174 -389 -200 -7 -7 -18 -13 -23 -13 -10 0 -116 -67 -137 -87 -6 -6 -21 -15
-32 -18 -11 -3 -20 -11 -20 -16 0 -5 -5 -9 -10 -9 -11 0 -60 -33 -94 -62 -11
-10 -23 -18 -27 -18 -4 0 -14 -6 -22 -14 -8 -8 -30 -25 -48 -38 -19 -13 -43
-31 -54 -40 -11 -9 -73 -60 -138 -113 -156 -127 -152 -124 -204 -172 -24 -24
-46 -43 -49 -43 -2 0 -20 -16 -39 -37 -30 -32 -36 -35 -52 -22 -16 13 -92 82
-132 119 -9 8 -55 46 -101 85 -47 38 -90 74 -96 80 -6 5 -26 21 -44 35 -18 14
-57 44 -86 68 -29 23 -57 42 -62 42 -6 0 -12 4 -14 8 -3 8 -174 132 -182 132
-3 0 -154 98 -181 118 -6 4 -28 16 -50 27 -22 11 -42 23 -45 26 -5 6 -281 141
-330 161 -14 6 -33 14 -42 19 -10 5 -26 9 -36 9 -10 0 -22 4 -27 9 -18 17
-242 78 -360 99 -22 4 -107 7 -190 7 -192 0 -281 -19 -435 -93 -19 -9 -37 -19
-40 -22 -3 -3 -25 -18 -50 -34 -45 -30 -190 -173 -190 -188 0 -4 -8 -16 -17
-26 -51 -52 -156 -281 -189 -412 -8 -30 -17 -64 -20 -75 -11 -44 -35 -171 -40
-219 -3 -28 -8 -62 -10 -76 -27 -152 -21 -612 11 -870 4 -30 9 -70 11 -89 2
-19 6 -49 9 -68 3 -18 8 -50 11 -70 5 -33 22 -133 39 -223 3 -14 7 -36 9 -50
3 -14 5 -25 6 -25 1 0 3 -9 5 -20 1 -11 6 -33 9 -50 4 -16 10 -46 13 -67 4
-34 3 -36 -26 -43 -17 -3 -34 -6 -37 -5 -4 1 -10 -2 -13 -7 -5 -6 -289 -108
-326 -116 -5 -2 -17 -7 -25 -12 -8 -5 -17 -10 -20 -10 -12 -1 -88 -32 -183
-74 -38 -17 -71 -31 -73 -31 -3 0 -61 -27 -129 -60 -533 -260 -903 -558 -1086
-875 -39 -68 -91 -185 -82 -185 3 0 1 -6 -5 -13 -6 -7 -18 -51 -27 -98 -17
-91 -15 -281 3 -316 5 -10 8 -26 7 -35 -2 -10 1 -18 6 -18 5 0 8 -3 7 -7 -9
-33 82 -217 160 -326 31 -43 87 -112 125 -153 69 -74 248 -234 262 -234 4 0
18 -11 31 -25 13 -14 25 -25 27 -25 2 0 53 -33 114 -72 60 -40 120 -79 132
-86 76 -44 105 -60 191 -105 52 -27 101 -54 109 -60 8 -7 17 -12 20 -11 3 0
33 -11 66 -26 115 -52 160 -72 183 -81 12 -5 32 -13 45 -18 12 -6 47 -20 77
-31 30 -12 64 -26 75 -30 37 -16 189 -69 295 -103 118 -38 117 -37 93 -132 -6
-27 -15 -66 -18 -85 -3 -19 -8 -42 -10 -50 -2 -8 -7 -35 -10 -60 -3 -25 -8
-52 -10 -60 -13 -45 -36 -216 -60 -435 -18 -162 -24 -527 -11 -670 4 -44 9
-98 11 -120 3 -37 7 -64 21 -140 3 -16 7 -43 10 -60 16 -89 68 -265 103 -348
11 -26 21 -51 22 -55 2 -4 15 -29 31 -55 15 -26 28 -50 28 -53 0 -5 40 -64 50
-74 3 -3 17 -21 32 -41 115 -155 325 -278 522 -307 66 -9 275 -9 346 1 83 12
242 50 310 75 8 3 20 6 25 7 15 4 151 59 220 90 99 44 288 143 337 177 14 10
31 18 37 18 6 0 11 5 11 10 0 6 4 10 9 10 16 0 210 132 357 243 164 124 348
277 449 372 64 61 60 60 96 28 17 -15 43 -39 58 -53 24 -23 181 -157 281 -240
23 -19 58 -46 78 -59 21 -14 48 -35 62 -48 14 -13 28 -23 32 -23 3 0 13 -6 20
-13 7 -8 56 -42 108 -78 52 -35 97 -67 98 -71 2 -5 8 -8 14 -8 5 0 29 -13 53
-30 24 -16 48 -30 54 -30 6 0 11 -4 11 -10 0 -5 6 -10 14 -10 8 0 21 -6 28
-12 51 -47 477 -244 568 -263 8 -2 33 -10 55 -18 40 -14 168 -44 215 -49 14
-2 30 -6 35 -9 14 -8 334 -4 365 4 14 4 39 10 55 13 33 5 120 36 175 62 33 15
150 99 195 139 24 21 100 114 134 162 35 51 128 241 136 281 4 19 11 40 15 45
7 10 36 111 44 155 2 14 7 36 10 50 14 59 22 113 42 275 3 28 7 104 9 170 2
66 5 122 6 125 1 3 0 10 -1 15 -1 6 -3 76 -5 157 -2 81 -6 171 -10 200 -8 77
-16 148 -20 188 -12 94 -15 120 -25 185 -7 39 -13 79 -15 90 -11 68 -17 102
-20 115 -3 8 -7 33 -11 55 -3 22 -10 47 -15 56 -4 9 -6 19 -3 22 3 2 -2 33
-11 67 -9 35 -13 66 -8 70 4 5 82 33 173 63 213 72 348 124 498 193 29 13 59
24 67 24 8 0 15 4 15 9 0 5 10 12 23 16 12 4 24 8 27 9 25 8 256 132 335 179
107 64 301 194 331 222 6 5 33 28 60 50 52 42 233 222 272 270 59 72 162 244
162 269 0 9 4 16 8 16 5 0 9 6 10 13 0 6 7 30 15 52 32 86 47 188 43 300 -2
61 -9 122 -14 136 -6 15 -8 30 -5 33 4 3 1 6 -6 6 -7 0 -10 4 -7 9 6 9 -45
144 -75 197 -38 69 -44 79 -49 84 -3 3 -23 30 -44 60 -46 64 -56 76 -156 179
-83 86 -174 165 -265 231 -33 24 -61 47 -63 52 -2 4 -8 8 -14 8 -6 0 -26 11
-44 25 -18 14 -37 25 -41 25 -5 0 -18 8 -29 18 -25 23 -178 110 -296 169 -51
26 -94 51 -96 55 -2 4 -10 8 -17 8 -7 0 -53 18 -102 41 -48 22 -97 44 -108 49
-92 40 -115 48 -115 42 0 -4 -4 -2 -8 3 -4 6 -29 18 -57 29 -97 36 -240 88
-250 90 -5 2 -17 6 -25 9 -8 3 -46 15 -85 27 -38 13 -74 26 -78 30 -5 4 1 50
12 101 11 52 23 110 26 129 3 19 8 42 10 50 2 8 7 35 10 60 3 25 8 59 12 75 3
17 7 39 8 50 2 11 6 38 9 60 13 94 21 164 31 265 19 197 24 526 10 660 -4 41
-8 99 -9 127 0 29 -3 53 -6 53 -3 0 -7 17 -8 37 -4 53 -40 216 -64 288 -10 33
-21 67 -23 77 -14 64 -110 250 -177 340 -134 182 -334 304 -548 335 -52 7
-277 9 -320 3z m218 -441 c55 -3 139 -29 191 -61 81 -50 156 -159 212 -310 16
-43 29 -82 29 -86 0 -4 5 -23 10 -42 5 -19 12 -51 15 -70 3 -19 8 -42 10 -50
2 -8 7 -37 11 -65 31 -233 31 -576 -2 -837 -2 -21 -7 -57 -9 -80 -3 -24 -10
-71 -16 -106 -5 -35 -7 -67 -4 -73 4 -5 1 -9 -4 -9 -6 0 -10 -3 -9 -7 2 -7
-12 -105 -17 -123 0 -3 -4 -21 -8 -40 -4 -19 -9 -46 -12 -60 -3 -14 -8 -38
-11 -55 -3 -16 -7 -37 -9 -45 -2 -8 -4 -18 -4 -22 -1 -7 -38 -3 -76 7 -24 6
-191 43 -224 50 -14 2 -47 9 -75 14 -28 6 -64 13 -81 16 -16 3 -39 8 -50 10
-11 2 -63 11 -115 20 -52 9 -108 18 -125 21 -16 3 -46 7 -65 9 -19 2 -48 7
-64 10 -15 3 -49 8 -75 10 -25 2 -46 5 -46 5 0 3 -31 7 -95 15 -36 4 -74 9
-85 11 -11 2 -37 4 -59 6 -35 2 -43 8 -94 78 -30 41 -59 77 -64 78 -4 2 -8 10
-8 17 0 7 -3 15 -7 17 -5 2 -48 55 -97 118 -49 63 -94 120 -101 125 -6 6 -17
19 -25 31 -28 40 -221 266 -267 312 -17 17 -30 32 -28 32 3 0 -10 15 -28 34
-17 18 -58 61 -89 94 -32 33 -58 63 -58 67 0 3 18 23 41 43 23 20 56 51 74 67
103 93 278 234 412 330 65 47 123 89 128 93 6 4 51 33 100 64 319 199 593 311
815 334 36 3 67 8 68 9 2 2 13 2 24 0 11 -2 41 -5 66 -6z m-3928 -13 c30 -4
71 -12 90 -16 19 -5 46 -11 60 -14 37 -7 187 -60 245 -86 112 -51 263 -128
275 -140 3 -3 25 -16 50 -29 41 -22 200 -123 225 -143 6 -5 48 -36 95 -69 47
-33 97 -71 112 -85 15 -13 30 -24 33 -24 10 0 244 -198 339 -288 31 -29 36
-38 23 -40 -9 -2 -17 -7 -17 -12 0 -4 -15 -23 -32 -42 -89 -91 -264 -287 -287
-321 -8 -12 -23 -29 -32 -37 -8 -8 -36 -40 -60 -70 -24 -30 -46 -57 -49 -60
-3 -3 -54 -68 -114 -145 -59 -77 -116 -150 -127 -163 -10 -12 -19 -27 -19 -32
0 -6 -4 -10 -8 -10 -4 0 -15 -12 -24 -27 -35 -59 -53 -70 -124 -76 -38 -4 -80
-9 -94 -11 -14 -3 -47 -7 -75 -10 -91 -10 -185 -23 -225 -31 -14 -3 -41 -7
-60 -9 -19 -3 -48 -8 -65 -11 -16 -3 -46 -8 -65 -11 -19 -3 -45 -8 -57 -10
-13 -2 -34 -6 -48 -8 -14 -3 -33 -7 -43 -10 -9 -3 -33 -7 -52 -10 -19 -3 -46
-8 -60 -11 -14 -3 -38 -8 -55 -11 -16 -3 -48 -9 -70 -15 -60 -15 -78 -19 -100
-24 -30 -6 -79 -17 -90 -19 -5 -1 -15 -5 -22 -9 -12 -7 -18 6 -27 54 -1 8 -8
39 -14 69 -27 130 -40 200 -47 255 -3 22 -7 51 -10 65 -10 47 -13 65 -19 125
-4 33 -9 74 -11 90 -18 129 -25 568 -11 700 8 77 16 136 21 155 2 8 6 32 9 53
13 83 59 226 102 314 71 145 182 240 301 259 21 3 39 7 40 7 5 5 146 0 193 -7z
m2055 -1431 c33 -37 67 -75 76 -84 14 -15 214 -252 232 -276 4 -5 19 -23 32
-40 14 -16 25 -33 25 -37 0 -5 -60 -5 -132 -2 -161 7 -701 6 -850 -1 -60 -2
-108 -3 -108 -1 0 2 13 21 30 42 16 22 33 44 37 49 5 6 22 26 38 45 17 20 44
53 60 74 17 21 41 51 55 67 14 15 45 51 70 79 65 75 83 95 173 192 l81 88 60
-64 c34 -35 88 -94 121 -131z m83 -888 c6 -5 12 -4 12 1 0 5 12 8 28 6 15 -2
81 -6 147 -9 118 -5 195 -9 365 -21 47 -3 90 -11 96 -17 15 -15 210 -309 290
-437 81 -130 83 -133 90 -152 3 -10 11 -18 16 -18 5 0 7 -4 4 -9 -4 -5 -3 -11
2 -13 21 -8 206 -343 373 -674 l122 -242 -105 -213 c-58 -118 -116 -232 -129
-254 -13 -21 -24 -46 -26 -54 -1 -9 -7 -17 -12 -19 -6 -2 -11 -7 -11 -11 0
-14 -142 -266 -154 -273 -6 -4 -8 -8 -4 -8 7 0 -186 -324 -241 -403 -17 -25
-31 -48 -31 -51 0 -8 -64 -101 -72 -104 -5 -2 -8 -10 -8 -18 0 -8 -4 -14 -10
-14 -5 0 -10 -4 -10 -10 0 -8 -57 -96 -81 -124 -4 -5 -29 -10 -56 -12 -26 -2
-77 -5 -113 -8 -487 -35 -1024 -35 -1490 0 -41 3 -92 7 -112 8 -37 3 -77 35
-78 63 0 6 -3 13 -8 15 -4 2 -25 30 -47 63 -21 33 -42 62 -47 63 -4 2 -8 8 -8
13 0 5 -20 38 -45 74 -24 36 -42 65 -40 65 3 0 -5 12 -18 26 -12 14 -22 29
-22 32 -1 4 -12 25 -26 47 -61 94 -76 121 -77 129 0 5 -4 12 -9 15 -11 8 -128
206 -122 207 2 1 -3 10 -12 20 -9 11 -36 55 -59 99 -24 44 -52 96 -63 115 -48
84 -237 465 -237 477 0 7 -5 13 -11 13 -7 0 -9 10 -4 27 6 24 168 359 214 443
11 19 54 98 97 175 42 77 123 219 181 315 125 211 119 200 166 273 20 32 37
62 37 67 0 5 3 10 8 12 8 4 52 64 52 73 0 3 12 23 28 44 15 21 34 49 42 61 48
71 69 97 81 97 8 0 55 3 104 7 140 12 209 16 354 21 73 2 135 6 137 7 6 7 540
2 552 -5z m-1754 -109 c-35 -56 -116 -186 -126 -200 -6 -9 -23 -37 -37 -62
-14 -25 -58 -100 -98 -168 -39 -68 -86 -150 -104 -183 -79 -143 -121 -223
-146 -273 -32 -66 -22 -81 -117 174 -40 107 -114 322 -121 349 -1 6 -5 17 -8
25 -21 55 -55 186 -49 192 4 4 18 9 32 12 26 5 74 15 100 21 8 2 15 4 15 5 0
1 11 3 25 5 14 2 36 6 50 10 33 8 64 14 97 20 16 2 51 9 78 15 28 6 65 13 84
16 18 3 43 8 55 10 11 2 37 7 56 10 19 3 46 7 60 10 14 2 45 7 70 10 25 3 47
7 49 10 2 2 13 4 23 4 13 0 17 -4 12 -12z m3086 -3 c19 -3 45 -7 56 -9 12 -2
37 -7 55 -10 78 -13 177 -31 254 -46 69 -14 80 -16 165 -35 97 -21 109 -24
148 -31 33 -6 40 -21 23 -53 -6 -10 -12 -28 -14 -42 -2 -13 -6 -31 -10 -39 -3
-8 -24 -73 -47 -143 -22 -71 -52 -159 -66 -195 -14 -37 -27 -74 -29 -82 -3 -8
-16 -46 -30 -85 -15 -38 -33 -89 -42 -113 -14 -39 -33 -49 -33 -17 0 7 -3 15
-7 17 -5 2 -30 46 -57 98 -27 52 -66 124 -86 160 -21 36 -37 68 -36 71 0 4 -6
15 -15 25 -9 11 -18 24 -20 29 -2 6 -39 69 -82 140 -103 171 -95 158 -150 244
-26 41 -55 87 -63 103 l-15 29 33 -5 c18 -3 49 -8 68 -11z m-4321 -303 c7 -20
14 -44 15 -52 2 -8 6 -22 9 -30 3 -8 20 -60 37 -115 33 -104 105 -315 120
-350 5 -11 25 -63 44 -115 30 -83 61 -160 99 -250 6 -14 11 -27 12 -30 1 -3 9
-22 18 -44 9 -21 17 -40 17 -42 0 -4 47 -109 59 -133 6 -13 -24 -92 -109 -286
-39 -90 -168 -437 -216 -584 -34 -100 -85 -263 -88 -276 -1 -5 -5 -16 -10 -23
-4 -7 -5 -16 -2 -19 3 -4 -1 -14 -10 -24 -11 -12 -21 -15 -33 -9 -21 11 -51
22 -73 26 -17 4 -221 76 -263 93 -11 5 -63 26 -115 47 -205 81 -473 215 -610
303 -31 20 -63 41 -72 46 -23 14 -106 73 -121 85 -6 6 -37 29 -67 52 -87 66
-232 217 -280 292 -25 38 -45 72 -45 75 -1 3 -6 15 -12 26 -19 34 -40 128 -38
170 9 167 122 341 340 522 119 99 120 100 143 112 11 6 27 17 34 23 8 7 23 18
33 25 189 115 264 158 335 193 47 23 92 46 100 51 17 10 61 26 74 27 5 0 12 4
15 9 5 7 231 105 251 109 3 0 14 5 25 9 41 18 341 121 356 122 10 1 21 -12 28
-35z m5532 22 c30 -9 61 -19 69 -22 8 -3 20 -6 25 -7 22 -6 131 -47 147 -56
10 -5 26 -9 36 -9 10 0 22 -4 28 -8 5 -5 47 -24 94 -42 102 -39 117 -45 243
-104 53 -25 102 -46 107 -46 6 0 10 -3 10 -8 0 -4 19 -16 43 -26 23 -10 74
-37 112 -60 39 -22 77 -44 85 -49 32 -16 235 -152 256 -172 6 -5 29 -23 50
-40 114 -88 255 -251 308 -354 102 -197 46 -389 -178 -616 -86 -87 -227 -205
-245 -205 -6 0 -11 -3 -11 -7 0 -5 -37 -30 -81 -58 -45 -27 -87 -56 -94 -62
-8 -7 -21 -13 -29 -13 -9 0 -16 -4 -16 -9 0 -26 -682 -337 -781 -356 -10 -2
-27 -9 -38 -15 -12 -6 -21 -8 -21 -4 0 3 -6 2 -12 -3 -15 -11 -120 -45 -129
-41 -3 2 -13 -3 -21 -10 -13 -10 -18 -1 -37 65 -22 76 -35 118 -51 158 -4 11
-22 65 -39 120 -18 55 -36 109 -41 120 -5 11 -16 40 -24 65 -16 50 -61 174
-75 205 -22 51 -61 151 -61 157 0 4 -13 35 -29 70 -55 120 -104 242 -104 255
0 8 11 39 26 71 14 31 40 91 57 132 17 41 35 84 40 95 5 11 25 63 45 115 20
52 40 104 45 115 12 27 23 69 21 74 -2 2 1 7 6 10 7 5 60 145 67 176 1 6 11
35 21 65 11 30 20 57 20 60 1 3 16 52 35 110 19 58 34 107 35 110 11 49 18 70
25 70 4 0 32 -7 61 -16z m-638 -2074 c48 -133 134 -402 139 -434 3 -17 -10
-23 -91 -42 -52 -13 -108 -25 -125 -27 -17 -3 -38 -7 -46 -10 -8 -4 -28 -8
-45 -11 -16 -3 -40 -7 -51 -10 -12 -2 -37 -7 -55 -10 -19 -3 -47 -8 -64 -11
-16 -3 -39 -7 -50 -9 -11 -2 -58 -11 -105 -19 -47 -9 -106 -18 -132 -22 l-48
-6 12 26 c6 14 15 25 20 25 4 0 8 5 8 11 0 6 13 29 29 52 90 132 449 771 443
790 -1 4 2 7 7 7 5 0 12 10 15 23 7 24 51 -78 139 -323z m-4171 283 c63 -126
101 -194 109 -199 5 -3 7 -9 4 -14 -3 -4 2 -13 10 -20 8 -7 15 -16 15 -21 0
-5 20 -43 45 -85 25 -41 45 -80 45 -85 0 -5 5 -9 10 -9 6 0 10 -5 10 -10 0 -6
19 -41 41 -78 23 -37 50 -83 61 -102 11 -19 29 -46 39 -59 11 -13 19 -28 19
-33 0 -5 5 -14 10 -21 11 -13 44 -62 78 -118 l22 -37 -37 3 c-21 2 -38 4 -38
5 0 1 -13 3 -30 5 -16 1 -59 8 -95 14 -36 7 -77 14 -93 17 -15 2 -39 6 -55 9
-15 3 -38 8 -52 10 -21 3 -215 44 -285 60 -11 3 -44 10 -73 17 l-54 12 7 35
c8 44 141 444 190 571 20 52 43 114 52 138 8 23 16 42 18 42 2 0 14 -21 27
-47z m4434 -1194 c3 -13 9 -40 14 -59 14 -61 28 -133 35 -180 4 -24 8 -48 11
-51 2 -4 6 -24 9 -45 2 -22 7 -50 9 -64 3 -14 8 -49 11 -79 4 -30 8 -61 10
-70 4 -24 17 -148 22 -216 12 -172 6 -564 -11 -650 -2 -11 -7 -42 -10 -70 -4
-27 -11 -66 -16 -85 -5 -19 -11 -46 -13 -60 -8 -40 -59 -194 -71 -210 -6 -8
-22 -36 -35 -62 -13 -27 -28 -48 -32 -48 -5 0 -9 -6 -9 -13 0 -32 -132 -130
-194 -143 -61 -14 -87 -17 -156 -17 -104 0 -175 10 -288 43 -4 2 -11 4 -17 5
-58 17 -175 60 -206 76 -21 10 -39 17 -39 15 0 -18 -471 253 -510 294 -3 3
-12 10 -21 15 -57 36 -129 89 -129 96 0 4 -9 10 -19 14 -11 3 -37 21 -58 40
-21 19 -41 35 -45 35 -4 0 -15 8 -25 18 -10 10 -43 38 -73 62 -30 25 -57 47
-60 50 -3 3 -39 34 -80 70 -121 106 -115 89 -56 152 28 30 83 90 121 133 39
43 77 85 85 94 17 18 119 139 135 158 6 7 21 26 35 42 14 16 30 35 35 43 6 7
49 60 95 118 47 58 96 121 110 140 13 19 29 40 35 46 5 6 18 22 27 35 106 148
92 136 183 144 33 3 73 7 89 10 15 3 49 8 75 10 25 2 46 5 46 6 0 0 11 2 25 3
14 2 48 6 75 11 28 4 59 9 70 10 11 2 37 6 58 9 20 3 54 9 75 12 40 6 64 10
98 18 12 2 38 7 58 10 20 3 53 9 74 12 20 3 40 8 43 10 4 2 24 6 45 9 22 3 46
9 54 12 8 3 24 7 35 8 40 6 81 14 113 24 17 5 32 8 32 6 0 -2 18 2 40 10 22 8
40 12 40 9 0 -3 8 -1 17 5 21 11 22 11 29 -20z m-4768 4 c15 -4 34 -8 42 -9 8
-1 44 -9 80 -19 36 -9 74 -18 85 -19 11 -2 20 -4 20 -6 0 -1 14 -3 30 -5 17
-1 66 -10 110 -19 44 -8 91 -18 105 -20 14 -3 36 -7 49 -10 12 -3 44 -8 70
-11 25 -4 55 -8 66 -10 33 -6 77 -13 130 -20 28 -3 57 -8 65 -10 8 -2 43 -7
78 -10 35 -4 73 -8 84 -10 11 -3 46 -7 77 -10 83 -9 104 -13 111 -22 4 -4 65
-84 135 -178 71 -93 134 -175 139 -181 6 -7 22 -26 36 -44 14 -18 30 -37 35
-44 6 -6 44 -51 85 -101 41 -49 80 -95 85 -101 6 -6 35 -39 65 -74 64 -74 160
-178 211 -230 l36 -37 -56 -50 c-31 -28 -68 -61 -84 -74 -15 -13 -42 -37 -60
-53 -17 -16 -77 -64 -132 -108 -55 -44 -108 -86 -118 -94 -51 -41 -198 -144
-206 -144 -5 0 -11 -4 -13 -8 -6 -15 -220 -146 -323 -197 -22 -11 -41 -23 -43
-27 -2 -5 -9 -8 -16 -8 -7 0 -33 -10 -57 -23 -62 -32 -242 -100 -300 -113 -11
-2 -29 -7 -41 -10 -248 -61 -437 -25 -556 105 -30 34 -99 143 -94 149 2 1 -4
15 -12 30 -27 50 -69 184 -81 257 -30 175 -33 202 -40 339 -2 54 -6 101 -9
103 -2 3 0 18 4 34 5 16 5 29 0 29 -4 0 -5 15 -1 33 5 18 6 41 5 52 -7 38 -6
48 10 255 3 41 8 84 10 95 2 11 7 51 11 88 3 37 8 78 11 90 2 12 6 39 9 62 3
22 10 63 15 90 5 28 12 63 14 79 3 16 10 52 16 80 6 28 12 62 15 76 17 89 9
84 93 63z m2372 -256 c179 1 366 3 417 6 50 3 94 3 96 0 5 -4 -146 -198 -182
-234 -9 -9 -25 -27 -35 -40 -53 -66 -143 -169 -263 -298 l-59 -63 -101 108
c-55 60 -124 134 -152 164 -28 30 -51 58 -51 62 0 4 -13 20 -28 35 -24 24 -69
77 -132 156 -8 11 -20 24 -25 31 -25 27 -55 69 -55 76 0 5 55 6 123 3 67 -3
268 -6 447 -6z"/>
<path d="M4846 5822 c-2 -1 -25 -5 -52 -7 -49 -5 -57 -6 -124 -23 -74 -20
-178 -65 -248 -108 -88 -56 -262 -223 -262 -253 0 -5 -4 -11 -8 -13 -33 -13
-132 -257 -148 -363 -8 -56 -8 -230 0 -287 11 -77 77 -274 96 -288 4 -3 10
-15 14 -27 4 -13 12 -23 17 -23 5 0 9 -5 9 -11 0 -26 183 -229 206 -229 7 0
14 -3 16 -7 5 -11 78 -65 78 -58 0 4 12 -3 26 -14 26 -20 172 -81 209 -86 11
-2 31 -6 45 -10 70 -18 250 -24 320 -11 147 27 251 67 365 141 106 69 212 172
265 260 13 22 27 42 30 45 15 13 105 240 95 240 -3 0 0 11 5 24 19 51 27 203
16 296 -11 95 -25 148 -68 260 -30 80 -125 222 -187 279 -88 81 -110 99 -146
121 -22 13 -43 28 -46 33 -3 4 -12 10 -20 11 -8 2 -43 16 -79 33 -69 31 -188
64 -255 70 -64 5 -166 8 -169 5z"/>
</g>
</svg>
